<?xml version="1.0" encoding="UTF-8" standalone="no"?>
<svg
  version="1.1"
  id="svg182"
  viewBox="0 0 6000 3333.3333"
  xmlns="http://www.w3.org/2000/svg"
  xmlns:svg="http://www.w3.org/2000/svg">
<g
    id="layer2"
    style="display:inline">
  <path
      d="m 0,7481.99 c 674.059,216.92 9327.54,4060.31 13433.2,5813.01 141.5,60.4 277.7,118.4 407.9,173.6 795.3,410.3 1668,484.5 2550.3,396.2 127.3,-12.6 254.7,-28.6 383.7,-47.3 344.9,-60.1 674.9,0 1004.9,90 450,120 880,210.1 1340,330.1 145,40 280.6,97.5 422.9,151.3 437.1,178.8 907.1,188.8 1377.1,148.8 710,-70 1460,-230.1 2120,90 115,55.1 229.4,103.8 344.4,144.1 115.1,40.4 230.9,72.3 348.6,93.5 377,82.5 747,-37.5 1137,12.5 630,90.1 1200,350.1 1780,580.2 1100,450.2 2270,400.2 3430,530.2 170,10 340,50 497.4,88.8 143.8,28.8 292.6,50.3 442.6,50.3 921.4,-6.5 1849,-33.5 2758.3,120.7 129.9,22 259.5,47.7 388.6,77.8 709.8,307.6 1487,441.5 2256.5,393.5 128.3,-8.1 256.6,-21.4 385.4,-39.8 911.2,-151.1 1821.2,-171.1 2741.2,-91.1 390,40 770,-80 1170,-50 220,20 440,70 660,109.1 115,22.7 231.3,39.2 348.2,50.3 350.7,33.4 707.3,18.1 1053.9,-24.4 119.1,-16.2 241,-33.5 363.7,-51.6 368.2,-54.5 735.1,-119.3 1101.7,-178.4 119.8,-16 236.9,-22.1 352.2,-19.1 136.1,3.6 270.1,19.9 400.3,47.3 L 45000,0 H 0 v 7481.99"
      style="display:inline;fill:hsl(183, 32%, 38%);fill-opacity:1;fill-rule:nonzero;stroke:none"
      id="path216"
      transform="matrix(0.13333333,0,0,-0.13333333,0,3333.3333)" />
</g>
</svg>