<?xml version="1.0" encoding="UTF-8" standalone="no"?>
<svg
   version="1.1"
   id="svg182"
   viewBox="0 0 6000 3333.3333"
   xmlns="http://www.w3.org/2000/svg"
   xmlns:svg="http://www.w3.org/2000/svg">
  <g
     id="layer8"
     style="display:inline">
    <path
       d="m 5875.5332,2111.2842 c -43.4,33.3221 -88.6933,63.7091 -141.0933,61.1763 -46.1867,-1.2484 -87.04,41.7855 -132.3467,56.9859 -10.6533,4.1113 -21.1467,8.4634 -31.56,12.8292 -7.8133,3.2636 -15.5733,6.5479 -23.3333,9.7668 -7.7467,3.1965 -15.4934,6.3122 -23.28,9.2681 -59.4934,17.4168 -116.3334,35.7329 -177.6134,55.4332 -11.5466,4.2196 -22.2133,5.6296 -32.8666,7.0327 -8,1.4117 -15.9867,2.8217 -21.32,9.8545 -46.1867,52.0888 -96.8134,66.1526 -149.3867,71.0359 -10.24,1.8743 -20.5467,3.6952 -30.9067,5.8102 -9.3333,1.6868 -18.36,4.5412 -27.1733,8.2347 -8.8267,3.6814 -17.4267,8.2347 -25.96,13.3605 -51.68,35.2824 -101.4133,73.2868 -158.2533,88.7623 -68.4,18.2955 -133.2267,30.9716 -200.2134,48.0789 -7.4,1.6318 -14.72,3.1639 -21.9866,4.6753 -14.5333,3.0418 -28.92,6.0372 -43.6267,9.6653 -9.7866,2.4039 -19.7333,5.1035 -29.9466,8.2674 -35.52,10.1295 -70.16,21.5143 -104.8,37.9837 -9.1734,4.6409 -18.1734,9.6653 -26.9334,14.9253 -35.24,18.5723 -66.32,52.3639 -103.6266,66.4294 -93.2534,36.6064 -182.08,61.9346 -268.8667,112.7475 -7.5733,4.2782 -15.0133,8.5563 -22.4533,12.996 -7.4,4.3865 -14.8134,8.9277 -22.2134,13.603 -5.32,2.82 -9.76,12.6744 -15.0933,15.4875 -63.0667,25.3299 -113.6933,77.4187 -168.76,129.5007 -11.5467,11.2644 -568.5702,180.1162 -579.9836,182.0733 -498.4457,156.0655 -1044.024,74.0491 -1050.9706,76.0198 C 2042.5132,3247.4707 0.73333331,3332.5265 0,3333.3332 V 6921.906 l 5999.9998,-10.2381 V 2112.211 c -10.3066,-2.3575 -20.6266,-4.3865 -30.9466,-5.8635 -10.32,-1.4908 -20.64,-2.4589 -30.9733,-2.7134 -10.3334,-0.2614 -20.6934,0.046 -31.1067,1.2363 -10.4267,1.1882 -20.92,3.372 -31.44,6.4138"
       style="display:inline;fill:hsl(215, 44%, 8%);fill-opacity:1;fill-rule:nonzero;stroke:none;stroke-width:0.151416"
       id="path228" />
  </g>
</svg>