<?xml version="1.0" encoding="UTF-8" standalone="no"?>
<svg
   version="1.1"
   id="svg182"
   viewBox="0 0 6000 3333.3333"
   xmlns="http://www.w3.org/2000/svg"
   xmlns:svg="http://www.w3.org/2000/svg">
  <g
     id="layer5"
     style="display:inline">
    <path
       d="m 25584.8,11759 c -654.8,-41.4 -1304.8,-141.2 -1863.3,-427.6 -100.6,-51.1 -202.1,-98.2 -305.4,-141.2 -309.8,-128.9 -636.1,-220.9 -996.1,-270.8 -890,-133 -1770,-133 -2570,-523.8 -110,-58.2 -260,-74.8 -390,-74.8 -880,0 -1760,-108.1 -2593.5,-363.1 -99.6,-26.8 -199.2,-54.42 -298.8,-82.82 -199.2,-56.79 -398.2,-116.6 -597.7,-177.69 -130,-41.6 -260,-66.6 -389.3,-89.69 -108.5,-20.51 -216.1,-39.49 -322.7,-58.28 -314,-63.13 -628.5,-122.5 -945.7,-170 -105.8,-15.94 -211.9,-30.43 -319.4,-43.13 -262.9,-24.29 -512.9,-40.19 -772.9,-40.19 -70,-8.01 -140,-15.9 -200,-39.69 -460,-190.7 -950,-357.5 -1480,-278.12 -630,103.32 -1230,119.21 -1838.59,11.21 -144.85,-20.59 -289.77,-45.2 -434.18,-73.01 C 8400.9,8749.69 0,0 0,0 h 45000 c 0,0 -198.3,8190.2 -268.3,8264.22 -376.4,355.78 -730.8,790.39 -1266.7,978.28 -107.2,37.62 -221.7,65.31 -345,80.51 -111.7,5.58 -223.1,11.6 -333.7,18.9 -596.3,72.58 -1226.3,64.18 -1746.3,405.2 -425,277.09 -947.2,305.99 -1456.3,339.19 -101.9,6.7 -203.2,13.5 -303.1,22.6 -460.6,45.6 -920.6,4 -1360.6,103.8 -508,119.7 -1004.8,278 -1503.8,414.2 -124.8,34.1 -249.8,66.8 -375.8,97.8 -850.4,186.4 -1670.4,494 -2560.4,543.9 270,8.4 530,-66.5 800,-108.1 -265,49.9 -532.5,95.7 -802.5,123.7 -90.5,10.2 -181.5,18.6 -274.8,26.9 -202.7,24.1 -412.7,32.4 -612.7,65.6 200,-24.9 390,-41.5 590,-58.2 -660,49.9 -1300,166.3 -1930,332.6 40,-8.3 70,-16.6 110,-24.9 -330,99.7 -660,207.8 -1010,224.4 -440,25 -870,33.3 -1295.5,88.2 -130.7,15.9 -265.1,33.9 -401.1,51.4 -951.5,122.9 -1918.3,170.2 -2792.9,-164.2 -160.8,-42.2 -241,-60 -275.7,-67"
       style="display:inline;fill:#183d51;fill-opacity:1;fill-rule:nonzero;stroke:none"
       id="path222"
       transform="matrix(0.13333333,0,0,-0.13333333,0,3333.3333)" />
  </g>
</svg>