<?xml version="1.0" encoding="UTF-8" standalone="no"?>
<svg
   version="1.1"
   id="svg182"
   viewBox="0 0 6000 3333.3333"
   xmlns="http://www.w3.org/2000/svg"
   xmlns:svg="http://www.w3.org/2000/svg">
  <g
     id="layer7"
     style="display:inline">
    <path
       d="M 1403.67,7633.28 C 2250,7335.31 3160,7385.31 4050,7385.31 c 230,-10 450,-20 680,-80.11 1620,-400.08 3160,-680.2 4790,-760.2 420,-20 810,-170.12 1230,-240.12 857.5,-131.29 1684.4,-170.66 2527.5,-225.39 120.5,-7.77 241.6,-15.9 364.5,-24.69 298,-50 588,-150 898,-170 1260,-110.11 2480,-290.11 3690,-690.31 670,-230.08 1330,-10 2010,100.12 470,70 930,60 1400.4,20.27 129.1,-13.16 259.2,-33.28 387.7,-60.66 514.1,-109.73 998.6,-336.41 1411.9,-709.92 60,-50 10401.8,-4532.5773 10401.8,-4532.5773 0,0 16.1,-7.81254 24.4,-11.7227 L 0,0 v 7628.79 c 116.09,11.41 232.23,21.21 348.441,28.4 116.168,7.22 232.418,11.91 348.75,13.12 116.36,1.17 232.887,-0.19 350.189,-6.01 117.35,-5.71 235.63,-16.29 356.29,-31.02"
       style="display:inline;fill:hsl(211, 49%, 11%);fill-opacity:1;fill-rule:nonzero;stroke:none"
       id="path226"
       transform="matrix(0.13333333,0,0,-0.13333333,0,3333.3333)" />
  </g>
</svg>