<?xml version="1.0" encoding="UTF-8" standalone="no"?>
<svg
   version="1.1"
   id="svg182"
   viewBox="0 0 6000 3333.3333"
   xmlns="http://www.w3.org/2000/svg"
   xmlns:svg="http://www.w3.org/2000/svg">
  <g
     id="layer4"
     style="display:inline">
    <path
       d="m 30278.3,11613.1 c 387.8,123.5 788.2,119.1 1195.7,127.7 101.9,2.2 204.3,5.2 307.1,11.2 109.8,0.6 215.5,12 318.2,31.3 104.8,19.1 206.5,46 308.6,77.6 174,65.3 348.9,128.9 525.5,186.1 88.3,28.6 177.1,55.6 266.3,80.4 460.3,129.5 930.3,169.5 1390.3,309.6 710,220.1 1400,320.1 2140,430.1 120,20 230,50 348.4,77.6 114,26.8 228.2,50.6 343.2,70.4 344.7,59.5 694.9,83.2 1057.7,45.1 111.7,-0.8 223.1,-2.2 334.5,-4.2 166.8,-3.2 333.4,-7.9 499.5,-14.3 216.7,-14.5 436.7,-14.5 656.7,25.5 870,120 1710,160.1 2580,70 250,-30 490,10 743.8,28.5 131.2,8.6 261.2,0.5 386.2,-40.4 95,-32.1 189.4,-64.8 282.8,-98.8 280.3,-101.9 552.2,-215.8 807.2,-363.5 90,-51.4 230,-171.2 230,-171.2 L 45000,0 H 0 c 0,0 30185.1,11578.8 30278.3,11613.1"
       style="display:inline;fill:hsl(182, 38%, 34%);fill-opacity:1;fill-rule:nonzero;stroke:none"
       id="path220"
       transform="matrix(0.13333333,0,0,-0.13333333,0,3333.3333)" />
  </g>
</svg>