<?xml version="1.0" encoding="UTF-8" standalone="no"?>
<svg
  version="1.1"
  id="svg182"
  viewBox="0 0 6000 3333.3333"
  xmlns="http://www.w3.org/2000/svg"
  xmlns:svg="http://www.w3.org/2000/svg">
<g
    id="layer3"
    style="display:inline">
  <path
      d="m 21580,12446.4 c -230,70.2 -450,131.5 -690,192.9 -1430,333.3 -2850,456.1 -4183.7,972.3 -117.1,44.6 -231.9,86.4 -348,124.9 -342.1,114.3 -695.4,199.3 -1071.6,224.8 -119.6,13.7 -236.9,26.1 -354.4,37.9 -345.2,33.6 -692.5,62.2 -1042,93.5 -133.4,11 -267.4,22.4 -403.7,33.9 -166.6,12.3 -326.6,100 -496.6,108.8 -220,8.8 -440,-43.8 -670,0 -1060,184.2 -2060,289.4 -3101.64,175.9 -119.81,-7.5 -239.61,-15 -359.34,-22.5 -479.02,-29.7 -957.42,-58.6 -1435.74,-85.3 -149.45,-8.3 -298.71,-16.4 -452.03,-21.3 -133.55,-3.4 -266.48,-2.1 -402.66,5.9 C 5810,14366.9 5060,14709 4280,14498.5 c -590,-157.9 -1150,-394.6 -1778.52,-338.6 -105.93,2.3 -212.3,5.5 -318.78,9.7 -319.46,12.5 -640.2,33.8 -962.7,66.5 -90,7.6 -170,0 -261.641,-0.8 0,0 -36.558,4 -98.91,11.5 C 620,14266.5 370,14410.8 150,14319.7 99.8789,14297.9 49.9219,14276.2 0,14254.7 V 0 h 45000 c 0,0 -8409.2,4475.78 -15763.2,8375.51 -93.1,49.37 -2347.6,2410.29 -2429.6,2447.09 -467.2,185.6 -3947.2,1211.6 -5227.2,1623.8"
      style="display:inline;fill:hsl(194, 51%, 28%);fill-opacity:1;fill-rule:nonzero;stroke:none"
      id="path218"
      transform="matrix(0.13333333,0,0,-0.13333333,0,3333.3333)" />
</g>
</svg>