<?xml version="1.0" encoding="UTF-8" standalone="no"?>
<svg
   version="1.1"
   id="svg182"
   viewBox="0 0 6000 3333.3333"
   xmlns="http://www.w3.org/2000/svg"
   xmlns:svg="http://www.w3.org/2000/svg">
  <g
     id="layer6"
     style="display:inline">
    <path
       d="m 45000,4015.12 c -11.5,1.17 -22.9,2.38 -34.4,3.59 -144,15.2 -13849.2,3150.2 -13963.7,3184.18 -754.2,241.21 -1629.9,297.31 -2441.9,472.5 -420,93.01 -810,221.8 -1177.4,388.52 -90.2,39.1 -179.2,79.61 -268.1,122.18 -88.1,42.31 -176.2,86.61 -264.5,133.13 -470,243.16 -1040,278.98 -1580,300.47 -1810,85.82 -3570,178.83 -5350,529.29 -340,71.53 -670,93.01 -1012.6,107.82 -113.8,6.4 -227.4,13.32 -340.8,21.01 -565.2,37.39 -1128.1,96.29 -1675.6,193.09 -125.2,22.19 -249.5,46.29 -371.4,71.48 -519.6,93.01 -979.6,264.73 -1449.6,472.22 -250,107.2 -510,200.2 -800,164.5 -1000,-121.6 -1970,-14.3 -2880,264.6 -1180,364.9 -2340,715.4 -3530,1087.3 -170,50.1 -340,114.5 -520,171.7 -80,21.5 -160,35.8 -244.1,53.9 -122.93,22.3 -243.4,32 -365.9,24.8 -570,-28.6 -1130,42.9 -1690,-28.6 -1240,-164.5 -2380,21.4 -3560,243.2 -200,35.8 -400,57.2 -610.078,63.4 -136.402,-1.8 -272.731,-3.7 -408.981,-5.3 -153.75,-1.9 -307.39,-3.4 -460.941,-4.5 L 0,0 h 45000 v 4015.12"
       style="display:inline;fill:#12263a;fill-opacity:1;fill-rule:nonzero;stroke:none"
       id="path224"
       transform="matrix(0.13333333,0,0,-0.13333333,0,3333.3333)" />
  </g>
</svg>