<?xml version="1.0" encoding="UTF-8" standalone="no"?>
<svg
  version="1.1"
  id="svg182"
  viewBox="0 0 6000 3333.3333"
  xmlns="http://www.w3.org/2000/svg"
  xmlns:svg="http://www.w3.org/2000/svg">
<g
    id="layer1"
    style="display:inline">
  <path
      d="m 45000,10760.6 c -1117.9,298.5 -19940,4483.6 -20220,4474.6 -480,-18 -2010,764.9 -2330.5,749.9 -137.7,-5.6 -272.2,-5.1 -407,2.6 -397.5,21.4 -797.5,106.9 -1202.5,174.4 -322.5,50.6 -638,102.5 -951.1,144.2 -104.6,14 -208.9,26.8 -315.6,38.9 -101.7,16.4 -200,29.1 -297.9,37.7 -95.4,5.4 -195.4,15.4 -295.4,15.4 -370,-10 -740,-110 -1120,-40 -840,140.1 -1611.1,387.3 -2433.9,514 -119.8,15 -240.4,27.8 -365.3,33.6 -106.3,15.4 -212.1,26.3 -317.3,33.5 -105.2,7.1 -210,10.6 -313.8,11 -599.7,28.1 -1179.7,-212 -1769.7,-141.9 -740,90 -1440,490.1 -2204,355.7 -93.9,-7 -187.8,-14 -281.7,-21 -93.8,-7.1 -187.62,-14.1 -281.37,-21.2 -125.78,-9 -251.52,-18 -379.06,-24.3 -613.87,-29.1 -1223.87,80.9 -1833.87,100.9 -400,20 -780,-110 -1190,-20 -460,100 -910,70 -1364.41,17.7 -136.53,-18.3 -273.95,-41.6 -411.61,-68.1 -203.98,-49.6 -393.98,-99.6 -603.98,-59.6 -1080,220 -2060,240.1 -3070,-150.1 -130,-50 -270,-10 -409.02,-23.5 -87.699,0.6 -182.968,3.3 -272.308,4.6 C 179.961,16902.2 24.9609,16898.8 0,16886 V 0 h 45000 v 10760.6"
      style="display:inline;fill:#54867e;fill-opacity:1;fill-rule:nonzero;stroke:none"
      id="path214"
      transform="matrix(0.13333333,0,0,-0.13333333,0,3333.3333)" />
</g>
</svg>