<?xml version="1.0" encoding="UTF-8" standalone="no"?>
<!-- Created with Inkscape (http://www.inkscape.org/) -->

<svg
  version="1.1"
  id="svg182"
  width="1152.3242"
  height="260.12854"
  viewBox="0 0 1152.3242 260.12854"
  xmlns="http://www.w3.org/2000/svg"
  xmlns:svg="http://www.w3.org/2000/svg">
<defs
    id="defs186" />
<g
    id="layer1"
    transform="translate(-45.675726,-42.871462)">
  <path
      style="display:inline;fill:hsl(0deg 0% 100%);fill-opacity:1"
      d="m 47,249.16353 c 0,-29.61006 -0.297962,-70.11006 -0.662137,-90 L 45.675726,123 H 59.337863 73 V 89.5 56 H 60.7 c -8.233333,0 -12.696748,-0.396748 -13.5,-1.2 -1.554321,-1.554321 -1.554321,-9.045679 0,-10.6 1.907478,-1.907478 63.14248,-1.697193 64.73552,0.222306 0.66053,0.795888 1.04477,3.548539 0.87244,6.25 L 112.5,55.5 99.75,55.779877 87,56.059754 V 89.529877 123 l 17.75,3.6e-4 17.75,3.5e-4 -0.27252,-39.475652 -0.27251,-39.475652 2.35273,-0.590497 c 1.294,-0.324774 4.34163,-0.44839 6.77251,-0.274703 L 135.5,43.5 l 0.27207,18.75 c 0.20333,14.013398 0.58226,18.747196 1.5,18.7389 C 137.94743,80.9828 145.925,78.110422 155,74.605849 L 171.5,68.233898 172,55.866949 172.5,43.5 l 5.5901,-0.295133 c 3.91264,-0.20657 5.94515,0.132676 6.7733,1.130534 0.87659,1.056228 1.11237,11.433385 0.9099,40.045504 L 185.5,123.00074 192.75,123.00037 200,123 V 83.606989 c 0,-34.998784 0.17645,-39.46072 1.58179,-40 C 202.45177,43.273145 215.67167,43 230.95934,43 c 22.81258,0 28.00739,0.254989 28.97618,1.422306 0.66053,0.795888 1.04477,3.548539 0.87244,6.25 L 260.5,55.5 l -23,0.5 -23,0.5 -0.28893,8.75 -0.28894,8.75 h 18.60468 c 10.91233,0 19.40442,0.42801 20.53893,1.035184 2.79144,1.493933 2.79144,10.435699 0,11.929632 C 251.93164,87.571767 243.45123,88 232.56574,88 H 214 v 11 11 h 20.875 c 11.48125,0 22.28125,0.28125 24,0.625 3.07447,0.61489 3.125,0.72 3.125,6.5 V 123 h 468 468 v 90 90 H 622.5 47 Z m 86.20078,14.72777 c 15.2054,-3.18128 29.53858,-16.84167 32.7617,-31.22389 1.70162,-7.59296 0.51693,-8.81845 -8.17842,-8.46005 l -7.09993,0.29264 -1.82763,5.38668 c -1.00519,2.96268 -2.97437,6.89014 -4.37595,8.72771 -9.19348,12.05327 -28.80522,11.8486 -38.14608,-0.39809 -4.4193,-5.79408 -5.63855,-12.70827 -5.1399,-29.14746 0.35457,-11.68909 0.72768,-14.17511 2.69327,-17.94514 4.53958,-8.707 12.10311,-13.38813 21.56734,-13.34819 10.95729,0.0462 17.27615,4.14201 21.79232,14.12541 1.64187,3.62949 3.49536,6.92969 4.11886,7.33377 1.92809,1.24955 11.15016,0.83933 13.09459,-0.58248 4.13132,-3.02089 -1.24164,-17.27514 -9.8108,-26.02768 -5.96829,-6.09601 -13.48433,-9.96285 -22.56514,-11.60928 C 110.91432,157.17682 89.072441,172.5261 84.977237,194.12003 84.439757,196.95415 84,205.64201 84,213.42639 c 0,20.90881 2.698562,29.40261 12.434783,39.13883 10.168797,10.1688 23.163637,14.17197 36.765997,11.32608 z m 431.45176,-2.04465 c 10.024,-3.73024 19.07906,-13.1587 22.90225,-23.84665 2.16797,-6.0607 3.24043,-28.33689 1.46711,-30.47361 C 587.96887,206.25757 584.6034,206 569.07756,206 c -13.19366,0 -19.02989,0.35233 -19.87756,1.2 -0.67794,0.67794 -1.2,3.92551 -1.2,7.46482 0,7.9736 0.63205,8.33518 14.57018,8.33518 h 10.70167 l -0.61916,4.51723 c -1.62661,11.86742 -11.3184,19.81483 -24.19964,19.84405 -10.57918,0.024 -20.49438,-6.88045 -23.29249,-16.21972 -1.69339,-5.65203 -1.53381,-34.31249 0.21434,-38.49641 1.91723,-4.58857 7.25842,-10.41743 11.55389,-12.60882 11.19223,-5.70985 23.09057,-2.54045 31.07121,8.27655 l 3.5,4.74392 7.5,-0.2784 c 6.90671,-0.25638 7.52517,-0.45555 7.81817,-2.51783 0.47037,-3.31078 -4.60268,-11.96072 -10.46673,-17.84654 -6.05664,-6.07912 -13.57375,-10.01884 -22.16461,-11.61648 -16.8274,-3.12938 -36.25822,7.44926 -43.99094,23.94981 -2.67184,5.70131 -2.69589,5.94893 -2.69589,27.75264 0,21.80371 0.024,22.05133 2.69589,27.75264 9.26228,19.76442 33.52223,29.38436 54.45665,21.59401 z m 112.66786,1.65811 c 7.98771,-2.08053 12.51572,-4.58835 19.02341,-10.53601 6.30985,-5.76685 11.59581,-15.25347 12.38105,-22.22004 0.65684,-5.82753 -0.82421,-6.93174 -8.78357,-6.54869 -6.80409,0.32745 -6.68008,0.22052 -9.48552,8.17928 -5.978,16.95898 -28.69098,20.67832 -40.68777,6.66277 -4.93419,-5.7645 -5.76931,-9.70327 -5.75823,-27.15809 0.009,-14.03283 0.21593,-15.82671 2.3571,-20.42485 2.54792,-5.47162 7.1435,-9.92862 12.59035,-12.21067 4.95955,-2.07789 13.93914,-1.83636 19.1725,0.5157 5.61549,2.52381 8.64856,5.84246 12.37028,13.53503 l 3,6.20081 5.86241,0.30326 c 10.50285,0.5433 11.82474,-3.47466 5.43658,-16.52477 -8.06477,-16.47517 -26.84824,-25.58847 -44.9579,-21.8125 -12.90197,2.69014 -22.64401,10.30958 -28.60637,22.37359 L 627.5,191.39627 v 21.55187 c 0,21.34258 0.0263,21.608 2.70897,27.33308 3.35548,7.16094 12.15623,16.54372 18.50885,19.73291 9.96419,5.0023 18.70397,6.0689 28.60258,3.49063 z m 367.3725,-3.00266 c 9.0835,-4.48931 16.174,-11.41696 20.186,-19.72247 6.4655,-13.38453 5.2016,-17.0573 -5.703,-16.57271 l -6.595,0.29308 -1.1789,4.08389 c -3.5745,12.3829 -11.5254,18.79516 -23.402,18.87333 -8.3604,0.055 -14.751,-2.94149 -19.479,-9.13353 -4.6478,-6.08698 -5.8319,-12.59073 -5.3264,-29.25485 0.4576,-15.08811 1.6117,-18.67546 7.9678,-24.76816 12.377,-11.86417 33.6555,-7.0025 38.8998,8.88775 0.7399,2.24188 1.9607,4.69162 2.7129,5.44386 1.9426,1.94258 12.591,1.83645 14.2328,-0.14186 3.2634,-3.93207 -2.1736,-17.50666 -10.3615,-25.86971 -12.2407,-12.50263 -31.119,-15.58066 -47.157,-7.68877 -10.96142,5.39383 -19.87497,16.89078 -22.3807,28.86727 -1.38756,6.63208 -1.44721,30.12958 -0.0947,37.31429 1.47815,7.85224 5.65771,15.67399 11.503,21.52708 12.6459,12.66271 30.3594,15.67846 46.1759,7.86151 z m -816.49803,0.68538 c 6.35323,-3.12936 12.57533,-9.54025 15.7108,-16.18748 2.58489,-5.47999 2.59433,-5.59459 2.59433,-31.5 0,-22.56704 -0.24037,-26.68926 -1.82048,-31.22024 -2.29397,-6.57797 -8.8923,-13.98645 -15.83117,-17.77494 -4.54073,-2.47915 -6.7295,-2.98157 -14.49483,-3.32721 -15.51494,-0.69058 -24.98866,4.12632 -31.40975,15.97024 L 179.5,183.5 v 29 c 0,27.37756 0.1178,29.2546 2.10566,33.55081 3.12251,6.74847 7.77035,11.47881 14.70681,14.96787 5.92924,2.98242 6.62584,3.09917 16.68753,2.79683 8.5281,-0.25626 11.3817,-0.7498 15.19487,-2.62803 z M 215.22687,223.75 c 4.40308,-12.7875 8.94505,-26.0625 10.09326,-29.5 1.14821,-3.4375 2.4459,-6.25 2.88376,-6.25 0.43786,0 0.79443,10.9125 0.79237,24.25 -0.003,22.43377 -0.15256,24.4941 -1.99086,27.50914 -2.99796,4.91705 -7.52391,7.23273 -14.14477,7.23712 l -5.63937,0.004 8.00561,-23.25 z m -18.54335,10.86765 c -1.06298,-2.77007 -0.79298,-42.68346 0.31573,-46.6745 0.54345,-1.95626 2.34875,-4.86043 4.01177,-6.45371 2.55796,-2.45068 4.02216,-2.96044 9.50633,-3.30965 3.56546,-0.22703 6.48265,-0.005 6.48265,0.49259 0,0.49795 -4.20957,13.03787 -9.3546,27.86649 -5.14504,14.82862 -9.56245,27.61338 -9.81648,28.41057 -0.36501,1.14546 -0.60523,1.07588 -1.1454,-0.33179 z m 569.3403,27.86763 C 766.56072,262.15346 767,258.71242 767,254.83854 v -7.04343 l 13.65649,0.73144 c 11.40644,0.61092 13.57155,0.50423 13.14099,-0.64756 C 793.51396,247.12055 787.54642,228.5 780.53628,206.5 773.52613,184.5 767.15231,165.4875 766.37223,164.25 765.10818,162.24476 764.14305,162 757.5,162 c -6.64246,0 -7.60851,0.24494 -8.87424,2.25 C 747.44311,166.12346 722,245.58998 722,247.41029 722,247.73463 727.83029,248 734.95619,248 h 12.95619 l 0.29381,7.25 0.29381,7.25 3.5,0.67238 c 3.76666,0.72361 12.42787,0.29925 14.02382,-0.6871 z m 56.39719,0.54475 2.5512,-0.96996 0.2639,-32.09351 0.26389,-32.0935 21.85664,32.53817 c 20.45334,30.44904 22.07811,32.5797 25.30588,33.18524 4.36979,0.81977 10.4278,-0.13498 11.49125,-1.81104 1.38998,-2.19068 1.04911,-97.18255 -0.35377,-98.58543 -1.67546,-1.67546 -13.24896,-1.56889 -14.66308,0.13502 -0.74574,0.89857 -1.19443,11.60533 -1.37244,32.75 L 867.5,227.5 l -21.40204,-32 c -11.77113,-17.6 -21.89613,-32.33061 -22.5,-32.73469 -1.80541,-1.20807 -13.09608,-0.86719 -14.39796,0.43469 -0.90057,0.90057 -1.2,13.38494 -1.2,50.03222 v 48.83223 l 2.25,0.90439 c 3.03289,1.21907 9.04604,1.2493 12.17101,0.0612 z M 951.5,261.24106 c 6.75514,-2.32659 16.45342,-11.8724 19.04041,-18.74106 1.69005,-4.48723 1.91853,-8.70449 2.22781,-41.12215 C 973.16849,159.42403 973.77716,162 963.46376,162 c -5.2975,0 -6.57083,0.33155 -7.42858,1.93426 -0.65688,1.2274 -1.03518,14.6947 -1.03518,36.85212 0,34.63735 -0.0182,34.94515 -2.26993,38.31574 -3.48283,5.21347 -7.80865,6.89514 -17.73007,6.89259 -9.41038,-0.002 -13.37063,-1.58005 -16.69567,-6.65097 -1.641,-2.50266 -1.83125,-6.05727 -2.10177,-39.26805 -0.22055,-27.07761 -0.60827,-36.71387 -1.5,-37.28068 -0.66141,-0.42041 -3.99923,-0.77128 -7.41738,-0.7797 -5.13039,-0.0126 -6.39544,0.3222 -7.25,1.91895 -0.65763,1.22879 -1.03518,14.83959 -1.03518,37.3185 0,39.85721 0.31421,42.17159 6.84688,50.43191 4.4947,5.68337 12.29812,10.23194 19.51393,11.37456 7.17497,1.13616 20.18989,0.23087 26.13919,-1.81817 z m 143.9349,1.78369 L 1098,262.0495 V 243.57975 225.11 l 4.75,-4.53826 4.75,-4.53825 1.8581,2.2275 c 1.0219,1.22512 8.5906,11.56846 16.8193,22.9852 8.2288,11.41673 15.8005,21.20682 16.8262,21.75575 1.0257,0.54893 4.2694,0.99806 7.2082,0.99806 5.638,0 9.7882,-1.9628 9.7882,-4.62928 0,-0.83372 -8.8404,-13.66777 -19.6454,-28.52009 -19.1022,-26.25749 -19.593,-27.05312 -17.75,-28.7722 36.1589,-33.72746 37.6505,-35.42332 34.1954,-38.87843 -0.7254,-0.72543 -4.2435,-1.2 -8.8959,-1.2 h -7.696 l -21.104,19.54455 L 1098,201.08911 v -18.34456 c 0,-12.93465 -0.3539,-18.69844 -1.2,-19.54455 -0.671,-0.67104 -3.8889,-1.2 -7.3,-1.2 -3.4111,0 -6.629,0.52896 -7.3,1.2 -0.9005,0.90047 -1.1962,13.19368 -1.1847,49.25 0.01,26.4275 0.3459,48.54503 0.75,49.15006 1.5969,2.39097 9.0774,3.17063 13.6696,1.42469 z m -777.30415,-3.76603 c 8.20182,-4.04064 14.94169,-11.07953 19.18427,-20.03539 L 340.5,232.5 v -19 c 0,-15.71536 -0.31101,-19.8913 -1.79904,-24.1557 -4.119,-11.80421 -14.37235,-21.58434 -26.62752,-25.39857 C 306.70277,162.27418 302.81473,162 284.48233,162 c -18.06619,0 -21.58052,0.24104 -22.9109,1.57143 C 260.18744,164.95542 260,170.7484 260,212.13717 c 0,31.43413 0.35389,47.65556 1.06881,48.9914 1.0312,1.92681 1.93815,1.98608 25.77574,1.68426 L 311.55149,262.5 Z M 278,212.59376 V 179 h 10.95078 c 6.02293,0 13.24227,0.49144 16.04299,1.09208 6.40117,1.37281 12.65623,6.08611 15.68006,11.8152 2.15212,4.07753 2.32617,5.59507 2.32617,20.28212 0,17.31259 -0.78927,20.86952 -5.80305,26.15218 -5.66751,5.97145 -9.36069,7.07873 -24.94695,7.47952 L 278,246.18753 Z m 126.79397,42.64821 c 0.28428,-7.01874 0.20795,-7.29074 -2.3151,-8.25 C 401.04388,246.44639 396.7491,246 392.9349,246 H 386 v -40.8 c 0,-30.4 -0.30588,-41.10588 -1.2,-42 -1.42501,-1.42501 -29.48899,-1.68299 -31.68655,-0.29128 -1.79858,1.13904 -2.59456,9.80089 -1.22599,13.34128 1.03723,2.68323 1.25789,2.75 9.08779,2.75 H 369 v 33.39411 33.39412 l -8.08899,0.36734 C 351.48497,246.58363 350,247.75425 350,254.75687 c 0,8.71169 -1.41273,8.31177 28.29402,8.00965 L 404.5,262.5 Z m 27.06911,6.42301 c 0.7451,-0.89779 1.19458,-11.52315 1.37244,-32.4431 L 433.5,198.1138 455.30114,230.5569 477.10229,263 h 6.74885 c 3.91578,0 7.2526,-0.50374 7.94886,-1.2 0.89981,-0.89981 1.2,-13.13968 1.2,-48.92857 C 493,158.18671 493.67574,162 483.98528,162 474.72711,162 475,160.93835 475,196.95671 v 30.5117 L 453.25,194.98421 431.5,162.5 l -6.49696,-0.30413 c -10.50572,-0.49178 -9.82382,-4.22743 -9.3111,51.00874 0.24145,26.01246 0.62042,47.85789 0.84215,48.54539 0.57335,1.77775 13.84411,1.70414 15.32899,-0.085 z M 172,103 c 0,-11 -0.3375,-19.998991 -0.75,-19.997758 -0.4125,0.0012 -6.15,2.063483 -12.75,4.582776 -6.6,2.519294 -14.3625,5.475617 -17.25,6.569607 L 136,96.143698 V 109.57185 123 h 18 18 z"
      id="path302" />
</g>
</svg>
