<?xml version="1.0" encoding="UTF-8" standalone="no"?>
<!-- Created with Inkscape (http://www.inkscape.org/) -->

<svg
  version="1.1"
  id="svg182"
  viewBox="0 0 1232.0322 181.7892"
  width="1232.0322"
  height="181.7892"
  xmlns="http://www.w3.org/2000/svg"
  xmlns:svg="http://www.w3.org/2000/svg">
<defs
    id="defs186" />
<g
    id="layer1"
    transform="translate(-33.967766,-63.210793)">
  <path
      style="fill:hsl(0deg 0% 100%)"
      d="M 114.66667,244.33333 C 114.3,243.96667 114,238.74352 114,232.72634 c 0,-9.5653 -0.19881,-10.86403 -1.58179,-10.33333 C 111.54823,222.72686 96.473229,223 78.918213,223 H 47 v 10.5 10.5 h -5.893011 c -4.451165,0 -6.041524,-0.38702 -6.5,-1.58179 -0.869702,-2.26641 -0.722342,-50.69662 0.158324,-52.03343 1.163224,-1.76572 5.108941,-2.63095 8.821626,-1.93445 L 47,189.09063 V 199.54531 210 H 80.5 114 V 195.5 181 H 74.606989 c -43.44731,0 -40.624408,0.44034 -40.591676,-6.33179 0.02699,-5.58517 0.07972,-5.60061 20.140058,-5.89539 L 72.720915,168.5 66.198852,154.25 59.676788,140 H 48.409823 C 35.748816,140 34,139.22567 34,133.6197 c 0,-6.9801 -1.824599,-6.69734 41.254161,-6.39323 L 114.00074,127.5 114.00037,121.75 114,116 H 75.2 c -28.844444,0 -39.107904,-0.3079 -40,-1.2 -1.402984,-1.40298 -1.71976,-46.432233 -0.341928,-48.604596 0.56715,-0.894199 2.685729,-1.208776 6.734687,-1 L 47.5,65.5 47.771728,84.788616 48.043456,104.07723 56.771728,103.78862 65.5,103.5 65.775763,87.043095 c 0.194891,-11.630659 0.63479,-16.685003 1.5,-17.234688 C 69.185666,68.595009 76.465896,68.865896 77.8,70.2 78.635371,71.035371 79,76.362834 79,87.732751 V 104.0655 l 11.25,-0.28275 11.25,-0.28275 0.271,-19.708627 0.271,-19.708627 3.229,-0.585416 c 1.77595,-0.321979 6.379,-0.381718 10.229,-0.132752 3.85,0.248965 264.2875,0.493784 578.75,0.544043 L 1266,64 V 154.5 245 H 690.66667 c -316.43334,0 -575.63334,-0.3 -576,-0.66667 z m 635.07635,-41.53697 c 11.1085,-4.09938 20.85748,-13.97569 25.27713,-25.60726 2.39067,-6.29174 2.47748,-8.54861 0.40842,-10.61767 -1.67745,-1.67746 -10.8885,-2.20126 -13.17512,-0.74923 -0.6856,0.43536 -1.91297,3.03563 -2.72747,5.77837 -5.92432,19.94935 -33.06593,23.62353 -43.99954,5.95624 -3.01549,-4.87263 -3.02762,-4.95214 -3.35229,-21.97357 -0.37208,-19.50678 0.27888,-22.86517 5.5664,-28.71782 12.45787,-13.78937 32.42395,-10.84358 40.39578,5.95999 1.74158,3.67103 3.66087,7.0052 4.26509,7.40928 0.60422,0.40408 3.23608,0.74158 5.84858,0.75 5.96269,0.0192 9.10782,-2.58405 8.15489,-6.74992 -1.16175,-5.07871 -5.43777,-13.56891 -9.06052,-17.99 -14.44183,-17.624355 -42.99919,-19.108811 -59.44565,-3.09008 -10.25586,9.98915 -12.90398,18.37425 -12.88685,40.80541 0.0167,21.86853 2.43997,29.62568 12.34754,39.52596 11.15621,11.14798 27.6098,14.7623 42.38361,9.3103 z m 362.80028,-1.36018 C 1124.2639,195.89146 1136,180.69614 1136,171.06564 1136,166.0782 1134.5642,165 1127.9224,165 c -6.3581,0 -7.2318,0.64774 -8.8029,6.52633 -4.4794,16.76015 -25.8083,23.13553 -39.1616,11.70567 -7.3391,-6.28207 -8.3807,-9.53929 -8.7813,-27.4606 -0.288,-12.88484 -0.04,-16.66536 1.3693,-20.90974 4.6311,-13.94278 21.2598,-20.63569 34.4306,-13.858 4.9128,2.52812 8.5334,6.63948 11.0046,12.49634 2.667,6.32113 4.2607,7.5 10.1386,7.5 8.5681,0 9.7435,-4.06618 4.4916,-15.53796 -3.5268,-7.70344 -11.5383,-15.8085 -19.5008,-19.72841 -6.1993,-3.05191 -7.1878,-3.23363 -17.5895,-3.23363 -10.1591,0 -11.4902,0.22937 -17.021,2.93296 -7.7772,3.80171 -16.7875,12.80623 -20.2852,20.27227 -2.6952,5.75292 -2.7148,5.95367 -2.7148,27.79477 0,21.80371 0.024,22.05133 2.6959,27.75264 9.6141,20.51519 34.2816,29.6762 54.3474,20.18354 z M 210.27383,201.2911 c 12.18516,-5.77132 23.7232,-20.52669 23.72538,-30.3411 0.001,-4.86733 -1.46857,-5.95 -8.07677,-5.95 -6.46531,0 -6.98021,0.42228 -9.34077,7.66054 -2.04474,6.26983 -9.38679,13.63643 -15.19959,15.25041 -12.04317,3.3439 -23.98046,-1.59502 -29.65249,-12.2684 -1.94023,-3.65103 -2.24283,-5.99094 -2.5503,-19.72083 -0.3955,-17.66111 0.36881,-21.86268 5.10716,-28.07507 11.42925,-14.98474 36.61762,-11.24969 41.84727,6.20532 1.51597,5.05988 4.09166,6.94803 9.478,6.94803 6.02068,0 8.87824,-2.57477 8.00768,-7.21525 -2.01331,-10.73184 -12.41281,-23.45547 -23.36676,-28.58886 -5.15709,-2.4168 -6.8936,-2.69589 -16.77367,-2.69589 -10.40167,0 -11.39015,0.18172 -17.58946,3.23363 -7.89744,3.8879 -15.96787,12.01156 -19.41668,19.54475 -4.12353,9.00697 -5.62407,27.77979 -3.52347,44.08114 2.02974,15.75152 13.30558,29.37464 28.33668,34.2355 2.57209,0.83178 7.7206,1.27345 13.21396,1.13357 7.78122,-0.19813 9.91732,-0.66364 15.77383,-3.43749 z m 85.94271,0.39138 c 6.16134,-3.01446 11.46099,-8.27779 14.99015,-14.88742 C 313.44631,182.60055 313.5,181.82111 313.5,153.5 v -29 l -2.96815,-5.3588 C 307.17094,113.07328 301.7871,108.0621 295.07557,104.75477 291.20771,102.84875 288.87594,102.5 280,102.5 c -9.4507,0 -11.00601,0.26705 -15.56346,2.67232 -5.32397,2.8098 -11.27601,8.68278 -13.85601,13.67194 -2.86971,5.54942 -3.82267,16.8379 -3.38877,40.14222 0.38476,20.66435 0.60349,22.9242 2.66306,27.51352 3.64186,8.1151 11.13374,14.66817 20.14518,17.62078 1.375,0.45052 6.5752,0.70317 11.556,0.56144 7.51583,-0.21386 10.00917,-0.72403 14.66054,-2.99974 z m -20.54371,-13.40283 c -0.67721,-1.09575 19.45067,-60.25772 20.50521,-60.27107 1.37078,-0.0173 1.9772,10.98049 1.65374,29.99142 -0.30596,17.98235 -0.50152,19.7724 -2.51271,23 -1.19951,1.925 -3.57652,4.32151 -5.28224,5.32558 -3.53226,2.07926 -13.45256,3.42881 -14.364,1.95407 z M 264,153.90113 c 0,-26.78311 0.47247,-29.2184 6.35646,-32.76368 3.88429,-2.3404 9.31371,-3.35656 12.70059,-2.377 l 2.55705,0.73955 -10.05705,29.24458 c -5.53138,16.08452 -10.39455,29.24702 -10.80705,29.25 -0.4125,0.003 -0.75,-10.83907 -0.75,-24.09345 z m 371.26368,47.28982 c 7.66181,-3.77189 14.84535,-11.09618 18.36222,-18.72198 4.15497,-9.00941 5.95232,-30.74789 2.80267,-33.89754 C 655.11977,147.26262 651.93342,147 637.36283,147 c -10.14693,0 -18.30668,0.43476 -19.42857,1.03518 -1.56895,0.83968 -1.93426,2.12395 -1.93426,6.8 0,3.17065 0.54,6.30482 1.2,6.96482 0.791,0.791 5.03133,1.2 12.44098,1.2 6.18254,0 11.43019,0.3375 11.66145,0.75 0.23125,0.4125 -0.1099,3.33306 -0.75813,6.49013 -2.11693,10.31024 -10.32959,17.26296 -21.78819,18.44559 -10.27108,1.06007 -19.22891,-3.69811 -24.34482,-12.93139 C 591.51646,170.5297 591.5,170.40389 591.5,153.5 c 0,-16.90389 0.0165,-17.0297 2.91129,-22.25433 9.1686,-16.54763 32.12399,-17.78612 41.63396,-2.24623 2.8019,4.57847 4.44254,5.24128 11.9052,4.80964 7.16007,-0.41415 8.09238,-1.98727 4.94692,-8.34717 -1.31856,-2.66601 -4.74097,-7.3878 -7.60537,-10.49288 -19.62094,-21.269601 -53.11841,-16.29659 -66.02612,9.80219 l -3.76588,7.61444 -0.3446,17.55717 c -0.459,23.38595 1.18343,30.50844 9.36222,40.59982 4.42725,5.46254 10.36607,9.41247 18.33859,12.19705 5.5317,1.93208 8.24717,2.26885 16.22265,2.01193 8.44067,-0.27191 10.36381,-0.695 16.18482,-3.56068 z m -249.95882,-1.0182 c 12.13937,-5.97991 20.18729,-16.52253 22.60066,-29.60641 1.34553,-7.29469 1.41544,-25.03585 0.1296,-32.88711 -2.729,-16.66303 -15.52663,-30.15862 -31.83434,-33.57053 C 373.28621,103.49892 361.97881,103 351.07322,103 c -16.04384,0 -20.05657,0.27502 -21.02418,1.44091 -1.67553,2.01889 -1.51007,96.29866 0.17256,98.3261 0.93728,1.12935 5.54283,1.32674 24.74026,1.06033 L 378.55045,203.5 Z M 345.23652,153.75 345.5,120.5 360,120.507 c 12.92589,0.006 14.93424,0.2406 18.5,2.15842 4.71739,2.53721 8.57485,6.48411 11.07769,11.33453 2.29664,4.45081 3.26531,26.6552 1.50584,34.51737 -1.57821,7.05218 -5.99758,12.76258 -12.3126,15.90949 C 373.94687,186.83079 372.66582,187 359.29018,187 h -14.31714 z m 127.15649,48.66821 C 473.45737,199.64454 473.04463,190.44463 471.8,189.2 471.05944,188.45944 467.42222,188 462.3,188 H 454 v -41.3 c 0,-30.78889 -0.30541,-41.60541 -1.2,-42.5 -1.67494,-1.67494 -29.92506,-1.67494 -31.6,0 -0.67104,0.67104 -1.2,3.88889 -1.2,7.3 0,3.41111 0.52896,6.62896 1.2,7.3 0.71416,0.71416 4.15556,1.2 8.5,1.2 h 7.3 v 33.96107 33.96106 l -8.75,0.28894 -8.75,0.28893 -0.30147,6.39467 c -0.16581,3.51707 -0.0674,7.00457 0.21861,7.75 0.41912,1.09221 5.55297,1.35533 26.44449,1.35533 22.71716,0 25.99949,-0.19569 26.53138,-1.58179 z M 499.69098,202.75 C 500.13594,202.0625 500.725,187.3469 501,170.04867 l 0.5,-31.45133 20.39953,30.45133 c 11.21974,16.74823 21.31068,31.46383 22.42431,32.70133 1.69209,1.88029 3.05841,2.25 8.31529,2.25 5.19578,0 6.47065,-0.33661 7.32569,-1.93426 C 560.63604,200.81155 561,183.69913 561,153.39448 561,99.562847 561.61606,103 551.96746,103 c -3.553,0 -6.14271,0.50623 -6.83074,1.33527 -0.74705,0.90014 -1.1943,11.73546 -1.37245,33.25 L 543.5,169.5 l -22.00839,-33 -22.00839,-33 -6.32892,-0.29998 c -3.80506,-0.18036 -6.89228,0.16756 -7.74161,0.87244 -1.18115,0.98027 -1.41269,9.06881 -1.41269,49.34998 0,36.1381 0.29988,48.47744 1.2,49.37756 1.62526,1.62526 13.4331,1.58452 14.49098,-0.05 z m 335.10283,-6.5 0.29381,-7.25 h 12.95619 C 855.16971,189 861,188.67789 861,188.28419 c 0,-1.72825 -26.29343,-82.9117 -27.21672,-84.03419 -1.11869,-1.36004 -13.48891,-1.74979 -15.38358,-0.48469 -2.00416,1.33822 -3.09661,4.4366 -15.39849,43.67289 -6.71463,21.41601 -12.43494,39.52851 -12.7118,40.25 -0.39958,1.04128 2.19951,1.3118 12.6036,1.3118 H 816 v 6.83333 c 0,3.75834 0.31619,7.14953 0.70264,7.53598 0.38646,0.38645 4.54896,0.57395 9.25,0.41667 L 834.5,203.5 Z M 891.8,202.8 c 0.88328,-0.88328 1.2,-9.63709 1.2,-33.1669 v -31.9669 l 20.13349,29.9169 C 940.42737,208.13982 936.87862,204 944.35089,204 c 3.52709,0 6.77181,-0.5227 7.44911,-1.2 0.89981,-0.89981 1.2,-13.13968 1.2,-48.92857 C 953,99.548877 953.56852,103 944.6197,103 c -9.05943,0 -8.57261,-1.88764 -8.86377,34.36925 L 935.5,169.2385 913.5,136.36925 891.5,103.5 885.77605,103.20087 C 875.09777,102.64284 876,98.015929 876,153.33518 c 0,36.20597 0.29982,48.56464 1.2,49.46482 0.67104,0.67104 3.88889,1.2 7.3,1.2 3.41111,0 6.62896,-0.52896 7.3,-1.2 z m 129.2756,-1.56396 c 6.7014,-3.28889 12.0918,-8.30301 15.4563,-14.37724 l 2.9681,-5.3588 0.2953,-37.8429 c 0.2167,-27.76547 -0.016,-38.21761 -0.8724,-39.25 -0.7348,-0.88532 -3.1316,-1.4071 -6.4636,-1.4071 -9.2102,0 -8.4562,-3.097769 -8.4832,34.85699 -0.013,18.50365 -0.4255,35.374 -0.9164,37.48966 -1.9235,8.28896 -8.1805,12.06881 -20.0597,12.11809 -9.90962,0.0411 -14.10761,-1.78369 -17.1369,-7.44914 -1.71723,-3.21158 -1.8631,-6.26902 -1.8631,-39.05 0,-26.3288 -0.31165,-35.87725 -1.2,-36.7656 -0.66,-0.66 -3.77786,-1.2 -6.92857,-1.2 -9.58591,0 -9.0693,-2.39996 -8.69551,40.39551 0.31665,36.2533 0.37683,37.21919 2.62343,42.10449 3.75588,8.16727 11.25452,14.70589 20.20065,17.61445 1.375,0.44704 7.9,0.71253 14.5,0.58998 10.1239,-0.18799 12.7154,-0.5739 16.5756,-2.46839 z M 1164.8,202.8 c 0.8455,-0.84549 1.2,-6.58111 1.2,-19.41501 v -18.21502 l 4.6408,-4.08498 c 2.5524,-2.24675 4.9149,-4.07045 5.25,-4.05269 0.3351,0.0178 8.2189,10.59277 17.5197,23.5 L 1210.3211,204 h 7.268 c 7.3433,0 11.1416,-1.6534 10.0906,-4.39234 -0.2394,-0.62396 -9.0403,-12.99515 -19.5575,-27.49153 C 1197.605,157.61974 1189,145.41687 1189,144.99864 c 0,-0.41824 8.325,-8.52971 18.5,-18.02549 19.094,-17.81937 21.0553,-20.53521 16.5657,-22.93797 -1.0638,-0.56935 -5.0013,-1.02744 -8.75,-1.01798 l -6.8157,0.0172 -21,19.42332 -21,19.42332 -0.2627,-18.19052 C 1165.936,102.82811 1166.0096,103 1157.3803,103 c -8.942,0 -8.3803,-3.360268 -8.3803,50.13717 0,30.48202 0.3637,47.67395 1.0352,48.92857 0.8543,1.59635 2.1296,1.93426 7.3,1.93426 3.5393,0 6.7869,-0.52206 7.4648,-1.2 z m -1050.79893,-48.55 0.001,-14.75 -19.59211,0.29156 c -17.983327,0.26763 -19.541144,0.43185 -18.971453,2 0.341361,0.93964 3.194828,7.44255 6.341039,14.45091 L 87.5,168.98495 l 13.25,0.008 13.25,0.008 0.001,-14.75 z"
       id="path300" />
  </g>
</svg>
